<svg width="344" height="46" viewBox="0 0 344 46" fill="none" xmlns="http://www.w3.org/2000/svg">
<path d="M42.432 29.6V30.176C41.184 30.176 40.128 30.608 39.264 31.472C38.448 32.288 38.04 33.32 38.04 34.568V38.888C36.024 40.568 33.816 41.84 31.416 42.704C29.064 43.568 26.592 44 24 44C20.4 44 17.16 43.424 14.28 42.272C11.4 41.12 8.928 39.56 6.864 37.592C4.848 35.624 3.288 33.32 2.184 30.68C1.128 28.04 0.6 25.208 0.6 22.184C0.6 19.16 1.128 16.328 2.184 13.688C3.288 11.048 4.848 8.744 6.864 6.776C8.928 4.808 11.4 3.248 14.28 2.096C17.16 0.943999 20.4 0.368 24 0.368C26.16 0.368 28.248 0.679998 30.264 1.304C32.28 1.928 34.176 2.816 35.952 3.968L36.96 1.88L37.536 1.808L38.04 5.552L38.76 10.304L38.184 10.376C37.272 9.128 36.144 8 34.8 6.992C33.648 6.128 32.16 5.336 30.336 4.616C28.56 3.896 26.448 3.536 24 3.536C21.408 3.536 19.056 4.04 16.944 5.048C14.88 6.008 13.104 7.328 11.616 9.008C10.128 10.688 8.976 12.656 8.16 14.912C7.344 17.168 6.936 19.592 6.936 22.184C6.936 24.776 7.344 27.2 8.16 29.456C8.976 31.712 10.128 33.68 11.616 35.36C13.104 37.04 14.88 38.384 16.944 39.392C19.056 40.352 21.408 40.832 24 40.832C26.688 40.832 29.28 40.28 31.776 39.176V34.496C31.776 33.248 31.344 32.216 30.48 31.4C29.664 30.536 28.632 30.104 27.384 30.104V29.528L42.432 29.6ZM94.0318 43.424V44H77.9038V43.424L80.4958 42.416C81.1198 42.176 81.5518 41.768 81.7918 41.192C82.0798 40.616 82.1038 40.016 81.8638 39.392L77.2558 27.368H62.6398L57.9598 39.536C57.7198 40.16 57.7198 40.76 57.9598 41.336C58.2478 41.912 58.7038 42.32 59.3278 42.56L61.5598 43.424V44H49.6798V43.424L50.2558 43.208C52.5118 42.296 54.0958 40.712 55.0078 38.456L69.6958 0.368H73.0798L87.6238 38.096C88.5358 40.352 90.1198 41.936 92.3758 42.848L94.0318 43.424ZM76.1038 24.272L69.9838 8.504L63.8638 24.272H76.1038ZM140.573 1.304C139.661 1.688 138.941 2.288 138.413 3.104C137.885 3.872 137.621 4.736 137.621 5.696V38.744C137.621 39.704 137.885 40.592 138.413 41.408C138.941 42.176 139.661 42.752 140.573 43.136L141.725 43.568V44.144H134.453L106.661 5.48V38.888C106.661 39.848 106.925 40.736 107.453 41.552C107.981 42.32 108.701 42.896 109.613 43.28L110.765 43.712V44.288H99.3891V43.712L100.541 43.28C101.453 42.896 102.173 42.32 102.701 41.552C103.229 40.736 103.493 39.848 103.493 38.888V5.84C103.493 4.88 103.229 4.016 102.701 3.248C102.173 2.432 101.453 1.832 100.541 1.448L99.3891 1.016V0.439999H110.837L134.453 33.272V5.696C134.453 4.736 134.189 3.872 133.661 3.104C133.133 2.288 132.413 1.688 131.501 1.304L130.349 0.871997V0.295996H141.725V0.871997L140.573 1.304ZM193.383 43.424V44H177.255V43.424L179.847 42.416C180.471 42.176 180.903 41.768 181.143 41.192C181.431 40.616 181.455 40.016 181.215 39.392L176.607 27.368H161.991L157.311 39.536C157.071 40.16 157.071 40.76 157.311 41.336C157.599 41.912 158.055 42.32 158.679 42.56L160.911 43.424V44H149.031V43.424L149.607 43.208C151.863 42.296 153.447 40.712 154.359 38.456L169.047 0.368H172.431L186.975 38.096C187.887 40.352 189.471 41.936 191.727 42.848L193.383 43.424ZM175.455 24.272L169.335 8.504L163.215 24.272H175.455ZM239.925 1.304C239.013 1.688 238.293 2.288 237.765 3.104C237.237 3.872 236.973 4.736 236.973 5.696V38.744C236.973 39.704 237.237 40.592 237.765 41.408C238.293 42.176 239.013 42.752 239.925 43.136L241.077 43.568V44.144H233.805L206.013 5.48V38.888C206.013 39.848 206.277 40.736 206.805 41.552C207.333 42.32 208.053 42.896 208.965 43.28L210.117 43.712V44.288H198.741V43.712L199.893 43.28C200.805 42.896 201.525 42.32 202.053 41.552C202.581 40.736 202.845 39.848 202.845 38.888V5.84C202.845 4.88 202.581 4.016 202.053 3.248C201.525 2.432 200.805 1.832 199.893 1.448L198.741 1.016V0.439999H210.189L233.805 33.272V5.696C233.805 4.736 233.541 3.872 233.013 3.104C232.485 2.288 231.765 1.688 230.853 1.304L229.701 0.871997V0.295996H241.077V0.871997L239.925 1.304ZM271.783 3.536C269.191 3.536 266.839 4.04 264.727 5.048C262.663 6.008 260.887 7.328 259.399 9.008C257.911 10.688 256.759 12.656 255.943 14.912C255.127 17.168 254.719 19.592 254.719 22.184C254.719 24.776 255.127 27.2 255.943 29.456C256.759 31.712 257.911 33.68 259.399 35.36C260.887 37.04 262.663 38.384 264.727 39.392C266.839 40.352 269.191 40.832 271.783 40.832C273.991 40.832 276.127 40.448 278.191 39.68C280.255 38.912 282.127 37.832 283.807 36.44L285.823 38.816C283.807 40.496 281.599 41.768 279.199 42.632C276.847 43.496 274.375 43.928 271.783 43.928C268.183 43.928 264.943 43.352 262.063 42.2C259.183 41.048 256.711 39.488 254.647 37.52C252.631 35.552 251.071 33.248 249.967 30.608C248.911 27.968 248.383 25.136 248.383 22.112C248.383 19.088 248.911 16.256 249.967 13.616C251.071 10.976 252.631 8.672 254.647 6.704C256.711 4.736 259.183 3.176 262.063 2.024C264.943 0.871997 268.183 0.295996 271.783 0.295996C273.943 0.295996 276.031 0.607996 278.047 1.232C280.063 1.856 281.959 2.744 283.735 3.896L284.743 1.808L285.319 1.736L286.543 10.232L285.967 10.304C285.007 9.056 283.855 7.928 282.511 6.92C281.359 6.056 279.871 5.264 278.047 4.544C276.271 3.824 274.159 3.464 271.711 3.464L271.783 3.536ZM326.279 35.576L324.983 44.072H293.663V43.496L294.814 43.064C295.727 42.68 296.447 42.104 296.975 41.336C297.503 40.52 297.767 39.632 297.767 38.672V5.624C297.767 4.664 297.503 3.8 296.975 3.032C296.447 2.216 295.727 1.616 294.814 1.232L293.663 0.799998V0.223997H322.391L323.615 8.72L323.039 8.792L319.655 4.976C318.743 3.92 317.591 3.392 316.199 3.392H304.103V19.304H310.655C311.615 19.304 312.479 19.04 313.247 18.512C314.063 17.984 314.663 17.264 315.047 16.352L315.119 16.28H315.695V25.568H315.119L315.047 25.496C314.663 24.584 314.063 23.864 313.247 23.336C312.479 22.808 311.615 22.544 310.655 22.544H304.103V40.832H318.863C320.255 40.832 321.407 40.304 322.319 39.248L325.703 35.432L326.279 35.576ZM335.043 40.112C335.043 38.336 335.475 37.088 336.339 36.368C337.203 35.648 338.235 35.288 339.435 35.288C340.683 35.288 341.739 35.648 342.603 36.368C343.515 37.088 343.971 38.336 343.971 40.112C343.971 41.84 343.515 43.088 342.603 43.856C341.739 44.624 340.683 45.008 339.435 45.008C338.235 45.008 337.203 44.624 336.339 43.856C335.475 43.088 335.043 41.84 335.043 40.112Z" fill="black"/>
</svg>
